# AST/ASF file generated using VICON BodyLanguage
# -----------------------------------------------
:version 1.10
:name VICON
:units
  mass 1.0
  length 0.45
  angle deg
:documentation
   .ast/.asf automatically generated from VICON data using
   VICON BodyBuilder and BodyLanguage model FoxedUp or BRILLIANT.MOD
:root
   order TX TY TZ RX RY RZ
   axis XYZ
   position 0 0 0  
   orientation 0 0 0 
:bonedata
  begin
     id 1 
     name lhipjoint
     direction 0.627412 -0.730575 0.26947 
     length 2.49821 
     axis 0 0 0  XYZ
  end
  begin
     id 2 
     name lfemur
     direction 0.34202 -0.939693 0  
     length 6.89165  
     axis 0 0 20  XYZ
    dof rx ry rz
    limits (-160.0 20.0)
           (-70.0 70.0)
           (-60.0 70.0)
  end
  begin
     id 3 
     name ltibia
     direction 0.34202 -0.939693 0   
     length 7.91287   
     axis 0 0 20   XYZ
    dof rx
    limits (-10.0 170.0)
  end
  begin
     id 4 
     name lfoot
     direction 0.0941675 -0.258723 0.96135   
     length 2.16919   
     axis -90 7.62852e-016 20   XYZ
    dof rx rz
    limits (-45.0 90.0)
           (-70.0 20.0)
  end
  begin
     id 5 
     name ltoes
     direction 1.5347e-011 -4.21941e-011 1   
     length 1.08535   
     axis -90 7.62852e-016 20   XYZ
    dof rx
    limits (-90.0 20.0)
  end
  begin
     id 6 
     name rhipjoint
     direction -0.614241 -0.740361 0.27308   
     length 2.46519  
     axis 0 0 0  XYZ 
  end
  begin
     id 7 
     name rfemur
     direction -0.34202 -0.939693 0   
     length 7.27512   
     axis 0 0 -20   XYZ
    dof rx ry rz
    limits (-160.0 20.0)
           (-70.0 70.0)
           (-70.0 60.0)
  end
  begin
     id 8 
     name rtibia
     direction -0.34202 -0.939693 0   
     length 7.89523   
     axis 0 0 -20   XYZ
    dof rx
    limits (-10.0 170.0)
 end
 begin
     id 9 
     name rfoot
     direction -0.0860444 -0.236405 0.967837   
     length 2.29534  
     axis -90 -7.62852e-016 -20   XYZ
    dof rx rz
    limits (-45.0 90.0)
           (-20.0 70.0)
  end
  begin
     id 10 
     name rtoes
     direction -1.53608e-011 -4.21861e-011 1   
     length 1.14915   
     axis -90 -7.62852e-016 -20   XYZ
    dof rx
    limits (-90.0 20.0)
  end
  begin
     id 11 
     name lowerback
     direction -0.00734074 0.997215 -0.0742143   
     length 2.13469   
     axis 0 0 0   XYZ
    dof rx ry rz
    limits (-20.0 45.0)
           (-30.0 30.0)
           (-30.0 30.0)
  end
  begin
     id 12 
     name upperback
     direction 0.0285728 0.99958 -0.00488656   
     length 2.13416   
     axis 0 0 0   XYZ
    dof rx ry rz
    limits (-20.0 45.0)
           (-30.0 30.0)
           (-30.0 30.0)
  end
  begin
     id 13 
     name thorax
     direction 0.0316844 0.999056 0.0297249   
     length 2.14463   
     axis 0 0 0   XYZ
    dof rx ry rz
    limits (-20.0 45.0)
           (-30.0 30.0)
           (-30.0 30.0)
  end
  begin
     id 14 
     name lowerneck
     direction -0.0281545 0.996802 0.0747864   
     length 1.79004   
     axis 0 0 0   XYZ
    dof rx ry rz
    limits (-20.0 45.0)
           (-30.0 30.0)
           (-30.0 30.0)
  end
  begin
     id 15 
     name upperneck
     direction -0.00100185 0.982732 -0.185031   
     length 1.79988   
     axis 0 0 0   XYZ
    dof rx ry rz
    limits (-20.0 45.0)
           (-30.0 30.0)
           (-30.0 30.0)
  end
  begin
     id 16
     name head
     direction 0.00403747 0.997539 -0.0700022  
     length 1.81696  
     axis 0 0 0   XYZ
    dof rx ry rz
    limits (-20.0 45.0)
           (-30.0 30.0)
           (-30.0 30.0)
  end
  begin
     id 17 
     name lclavicle
     direction 0.959882 0.242905 -0.140082  
     length 3.87755  
     axis 0 0 0   XYZ
    dof ry rz
    limits (-20.0 10.0)
           (0.0 20.0)
  end
  begin
     id 18 
     name lhumerus
     direction 1 -4.4895e-011 3.76166e-027   
     length 5.14601   
     axis 180 -30 -90   XYZ
    dof rx ry rz
    limits (-60.0 90.0)
           (-90.0 90.0)
           (-90.0 90.0)
  end
  begin
     id 19
     name lradius
     direction 1 -4.48966e-011 -3.24039e-027   
     length 3.64452   
     axis 180 -30 -90   XYZ
    dof rx
    limits (-10.0 170.0)
  end
  begin
     id 20
     name lwrist
     direction 1 -4.48999e-011 2.57119e-027   
     length 1.82226   
     axis -1.61769e-015 90 90   XYZ
    dof ry
    limits (-180.0 0.0)
 end
  begin
     id 21 
     name lhand
     direction 1 -4.48961e-011 5.13984e-027   
     length 0.56228   
     axis -3.27988e-015 90 90   XYZ
    dof rx rz
    limits (-90.0 90.0)
           (-45.0 45.0)
  end
  begin
     id 22 
     name lfingers
     direction 1 -4.48991e-011 1.02836e-026   
     length 0.453325   
     axis -6.5598e-015 90 90   XYZ
    dof rx
    limits (0.0 90.0)
  end
  begin
     id 23
     name lthumb
     direction 0.707107 -6.34956e-011 0.707107   
     length 0.650886   
     axis -90 45 2.19363e-014   XYZ
    dof rx rz
    limits (-45.0 45.0)
           (-45.0 45.0)
  end
  begin
     id 24 
     name rclavicle
     direction -0.929201 0.345171 -0.132073   
     length 3.55416  
     axis 0 0 0   XYZ 
    dof ry rz
    limits (-10.0 20.0)
           (-20.0 0.0)
  end
  begin
     id 25 
     name rhumerus
     direction -1 -4.48979e-011 4.53734e-027  
     length 5.33913   
     axis 180 30 90   XYZ
    dof rx ry rz
    limits (-90.0 60.0)
           (-90.0 90.0)
           (-90.0 90.0)
  end
  begin
     id 26 
     name rradius
     direction -1 -4.4896e-011 -2.24007e-027   
     length 3.56478   
     axis 180 30 90   XYZ
    dof rx
    limits (-10.0 170.0)
  end
  begin
     id 27 
     name rwrist
     direction -1 -4.48923e-011 2.56866e-027   
     length 1.78239   
     axis -1.61769e-015 -90 -90   XYZ
    dof ry
    limits (-180.0 0.0)
  end
  begin
     id 28
     name rhand
     direction -1 -4.48914e-011 5.13667e-027   
     length 0.857474   
     axis -3.27988e-015 -90 -90   XYZ
    dof rx rz
    limits (-90.0 90.0)
           (-45.0 45.0)
  end
  begin
     id 29
     name rfingers
     direction -1 -4.49112e-011 1.02998e-026   
     length 0.691318   
     axis -6.5598e-015 -90 -90   XYZ
    dof rx
    limits (0.0 90.0)
  end
  begin
     id 30
     name rthumb
     direction -0.707107 -6.34979e-011 0.707107   
     length 0.992598   
     axis -90 -45 -2.19363e-014   XYZ
    dof rx rz
    limits (-45.0 45.0)
           (-45.0 45.0)
  end
:hierarchy
  begin
    root lhipjoint rhipjoint lowerback
    lhipjoint lfemur
    lfemur ltibia
    ltibia lfoot
    lfoot ltoes
    rhipjoint rfemur
    rfemur rtibia
    rtibia rfoot
    rfoot rtoes
    lowerback upperback
    upperback thorax
    thorax lowerneck lclavicle rclavicle
    lowerneck upperneck
    upperneck head
    lclavicle lhumerus
    lhumerus lradius
    lradius lwrist
    lwrist lhand lthumb
    lhand lfingers
    rclavicle rhumerus
    rhumerus rradius
    rradius rwrist
    rwrist rhand rthumb
    rhand rfingers
  end

#!OML:ASF F:\VICON\USERDATA\INSTALL\Justin4\Justin4.ASF
:FULLY-SPECIFIED
:DEGREES
2349
root -9.40084 17.2161 23.6181 -1.91919 -2.66124 1.83706
lowerback 16.2053 3.48044 1.9583
upperback 4.1581 5.07743 3.29313
thorax -4.75971 2.48138 1.35759
lowerneck -13.1316 -1.96956 -5.82508
upperneck 16.4277 -2.84933 7.39771
head 7.3929 -1.048 3.10007
rclavicle 7.15625e-015 -1.74931e-014
rhumerus 0.096571 17.9345 -78.8308
rradius 115.023
rwrist -2.90361
rhand 6.00686 18.5596
rfingers 7.12502
rthumb 31.3299 -368.778
lclavicle 7.15625e-015 -1.74931e-014
lhumerus -12.2976 -18.4091 85.4761
lradius 138.774
lwrist 2.80403
lhand -4.85129 11.7252
lfingers 7.12502
lthumb 20.9363 40.6153
rfemur -23.3942 -2.23875 9.54322
rtibia 59.9378
rfoot -6.36095 -12.1615
rtoes 6.59343
lfemur -29.8189 6.3769 -12.2742
ltibia 65.7213
lfoot 3.01017 -9.39946
ltoes -36.5938
2350
root -9.44229 17.2648 23.5263 -2.07925 -3.66052 2.0204
lowerback 16.6061 3.3238 1.53719
upperback 3.80916 4.82773 3.2616
thorax -5.37467 2.35555 1.57661
lowerneck -12.3128 -1.53734 -5.52897
upperneck 16.8537 -2.3188 7.09151
head 7.34025 -0.816511 3.00955
rclavicle 1.59028e-014 -9.54166e-015
rhumerus 0.638595 17.0349 -79.0388
rradius 117.599
rwrist -5.57779
rhand 6.05336 20.2125
rfingers 7.12502
rthumb 31.3742 -367.117
lclavicle 1.59028e-014 -9.54166e-015
lhumerus -11.7707 -17.5813 84.6111
lradius 138.486
lwrist 2.54967
lhand -5.16219 10.9619
lfingers 7.12502
lthumb 20.6376 39.8847
rfemur -23.1315 -0.576829 8.76337
rtibia 59.748
rfoot -4.75407 -12.2177
rtoes 3.93303
lfemur -29.4403 6.8741 -12.6176
ltibia 67.4547
lfoot 4.25826 -10.6872
ltoes -31.3733
2351
root -9.49705 17.2463 23.4245 -2.23873 -4.11297 2.04336
lowerback 16.1735 2.97514 1.50391
upperback 4.06711 4.32811 3.10054
thorax -4.84534 2.11512 1.55815
lowerneck -11.8944 -1.19591 -5.09534
upperneck 16.8107 -1.94096 7.02761
head 7.22106 -0.622527 2.95187
rclavicle 7.95139e-015 1.43125e-014
rhumerus 2.25682 15.6897 -79.247
rradius 119.977
rwrist -8.09326
rhand 6.21137 22.6414
rfingers 7.12502
rthumb 31.5247 -364.659
lclavicle 7.95139e-015 1.43125e-014
lhumerus -9.49356 -16.884 83.0983
lradius 137.843
lwrist 2.52516
lhand -5.21675 10.989
lfingers 7.12502
lthumb 20.5851 39.9176
rfemur -22.6985 0.758583 8.17688
rtibia 59.5942
rfoot -4.337 -11.8493
rtoes -2.32952
lfemur -28.8177 7.19335 -12.7512
ltibia 68.986
lfoot 4.77407 -12.4767
ltoes -29.6022
2352
root -9.55824 17.1785 23.3165 -2.32021 -4.71853 1.61174
lowerback 16.0755 2.71195 1.54962
upperback 4.08465 3.9928 3.24974
thorax -4.77458 1.95045 1.76233
lowerneck -11.6533 -0.859607 -4.62989
upperneck 17.1407 -1.53246 6.68513
head 7.25255 -0.430478 2.80455
rclavicle -3.18055e-015 -2.22639e-014
rhumerus 3.68475 14.4916 -79.2865
rradius 122.287
rwrist -10.426
rhand 5.84934 23.9812
rfingers 7.12502
rthumb 31.1797 -363.386
lclavicle -3.18055e-015 -2.22639e-014
lhumerus -7.63226 -16.2789 82.1699
lradius 137.315
lwrist 2.13443
lhand -5.12904 11.5591
lfingers 7.12502
lthumb 20.6694 40.4785
rfemur -22.3752 2.29905 8.1709
rtibia 59.2883
rfoot -4.79569 -10.537
rtoes -8.91015
lfemur -28.0868 7.7645 -12.3014
ltibia 70.4226
lfoot 5.07408 -14.4004
ltoes -28.428
2353
root -9.62076 17.0912 23.2007 -2.29047 -5.43693 0.813334
lowerback 16.7927 2.51666 1.56987
upperback 3.52128 3.81632 3.70051
thorax -5.78777 1.8584 2.22467
lowerneck -11.1088 -0.571163 -4.4183
upperneck 17.8785 -1.14926 6.25832
head 7.3682 -0.276629 2.67412
rclavicle 3.57812e-014 1.90833e-014
rhumerus 4.29577 13.5878 -79.3181
rradius 124.675
rwrist -12.4593
rhand 5.67199 24.955
rfingers 7.12502
rthumb 31.0107 -362.444
lclavicle 3.57812e-014 1.90833e-014
lhumerus -6.76115 -15.6956 81.9211
lradius 136.873
lwrist 1.52315
lhand -5.11515 11.3717
lfingers 7.12502
lthumb 20.6828 40.2896
rfemur -22.4029 3.93304 8.64589
rtibia 59.0145
rfoot -6.3526 -8.46119
rtoes -16.4785
lfemur -27.443 8.37053 -11.3905
ltibia 71.6792
lfoot 5.40639 -15.9987
ltoes -27.4601
2354
root -9.68548 16.9899 23.0881 -2.22995 -5.84011 0.104797
lowerback 16.595 2.2355 1.76899
upperback 3.49607 3.4908 3.96298
thorax -5.70236 1.69839 2.4685
lowerneck -10.4853 -0.37504 -4.27443
upperneck 17.8646 -0.917269 6.19867
head 7.2376 -0.171878 2.64888
rclavicle 5.1684e-015 3.02153e-014
rhumerus 5.75827 12.7495 -79.3357
rradius 126.967
rwrist -12.4277
rhand 3.79537 24.6877
rfingers 7.12502
rthumb 29.2203 -363.038
lclavicle 5.1684e-015 3.02153e-014
lhumerus -4.81962 -15.2258 81.3338
lradius 136.259
lwrist 1.30388
lhand -4.94775 10.9602
lfingers 7.12502
lthumb 20.8436 39.8605
rfemur -22.4 5.21747 9.05878
rtibia 58.6844
rfoot -8.75334 -6.56811
rtoes -22.757
lfemur -26.8097 8.5623 -10.6093
ltibia 72.6304
lfoot 5.68633 -17.3603
ltoes -27.3363
2355
root -9.75277 16.8742 22.9804 -2.13381 -6.1537 -0.517038
lowerback 16.3298 1.94787 1.90286
upperback 3.44559 3.13748 4.14231
thorax -5.60348 1.52541 2.66615
lowerneck -10.0819 -0.185013 -4.0615
upperneck 18.0221 -0.7353 6.29843
head 7.20546 -0.0679909 2.66265
rclavicle -1.86858e-014 -3.49861e-014
rhumerus 7.16709 11.5603 -79.4492
rradius 129.197
rwrist -12.8932
rhand 3.5895 24.747
rfingers 7.12502
rthumb 29.0237 -363.013
lclavicle -1.86858e-014 -3.49861e-014
lhumerus -2.81979 -14.9954 80.8802
lradius 135.54
lwrist 1.17752
lhand -4.75531 10.9769
lfingers 7.12502
lthumb 21.0285 39.8569
rfemur -22.5214 6.17717 9.47205
rtibia 58.4269
rfoot -10.8433 -5.60045
rtoes -26.3811
lfemur -26.1304 8.60423 -9.94097
ltibia 73.2294
lfoot 5.97355 -18.6122
ltoes -27.0251
2356
root -9.81367 16.761 22.8665 -1.84692 -6.31699 -1.15494
lowerback 15.7416 1.58538 2.07706
upperback 3.50369 2.6689 4.30635
thorax -5.20531 1.29629 2.85286
lowerneck -10.0837 0.00276845 -3.81914
upperneck 18.3515 -0.555489 6.38972
head 7.30207 0.0433199 2.67338
rclavicle -6.36111e-015 4.13472e-014
rhumerus 8.69084 10.2855 -79.5286
rradius 131.318
rwrist -13.1837
rhand 3.31836 25.7629
rfingers 7.12502
rthumb 28.7647 -362.041
lclavicle -6.36111e-015 4.13472e-014
lhumerus -0.602355 -14.7691 80.5413
lradius 134.831
lwrist 1.03887
lhand -4.88233 10.838
lfingers 7.12502
lthumb 20.9065 39.7314
rfemur -23.111 6.39476 10.0047
rtibia 58.4273
rfoot -12.3703 -5.03254
rtoes -25.264
lfemur -25.6328 8.4491 -9.37558
ltibia 73.4154
lfoot 5.67074 -19.517
ltoes -28.5146
2357
root -9.8676 16.6563 22.75 -1.53933 -6.20532 -1.82121
lowerback 15.2967 1.08416 2.18143
upperback 3.33478 2.02823 4.56445
thorax -5.12445 0.982997 3.20226
lowerneck -9.45047 0.218593 -3.75353
upperneck 18.5264 -0.322548 6.5154
head 7.23156 0.160156 2.72268
rclavicle 1.07344e-014 -3.18055e-015
rhumerus 9.7301 9.53504 -79.7004
rradius 133.209
rwrist -13.1219
rhand 2.29901 27.1302
rfingers 7.12502
rthumb 27.7905 -360.835
lclavicle 1.07344e-014 -3.18055e-015
lhumerus 0.978662 -14.4134 80.5444
lradius 134.355
lwrist 1.31452
lhand -4.87674 10.6777
lfingers 7.12502
lthumb 20.9118 39.5705
rfemur -23.8022 5.59405 10.7907
rtibia 58.7923
rfoot -13.7322 -4.86975
rtoes -25.3432
lfemur -25.147 7.89464 -8.91013
ltibia 73.1571
lfoot 4.18503 -19.7435
ltoes -31.5589
2358
root -9.92156 16.5495 22.6329 -1.48964 -6.2166 -2.81134
lowerback 15.3162 0.471639 2.25982
upperback 2.90853 1.29216 5.12939
thorax -5.56898 0.625255 3.91178
lowerneck -7.75429 0.634122 -3.93508
upperneck 18.523 0.238483 6.45477
head 6.89411 0.383275 2.76532
rclavicle 9.74045e-015 3.02153e-014
rhumerus 10.011 9.78231 -79.9313
rradius 134.835
rwrist -13.601
rhand 2.45208 27.4385
rfingers 7.12502
rthumb 27.9369 -360.503
lclavicle 9.74045e-015 3.02153e-014
lhumerus 1.47171 -13.68 80.895
lradius 134.285
lwrist 1.89479
lhand -4.47457 11.0374
lfingers 7.12502
lthumb 21.2982 39.8871
rfemur -24.3828 4.46323 12.2516
rtibia 59.4424
rfoot -14.6592 -5.43427
rtoes -26.8406
lfemur -24.1704 7.26194 -8.0381
ltibia 72.4911
lfoot 1.49371 -19.0028
ltoes -33.8531
